<?xml version="1.0" encoding="UTF-8" standalone="no"?>
<svg
   xmlns:dc="http://purl.org/dc/elements/1.1/"
   xmlns:cc="http://creativecommons.org/ns#"
   xmlns:rdf="http://www.w3.org/1999/02/22-rdf-syntax-ns#"
   xmlns:svg="http://www.w3.org/2000/svg"
   xmlns="http://www.w3.org/2000/svg"
   xmlns:sodipodi="http://sodipodi.sourceforge.net/DTD/sodipodi-0.dtd"
   xmlns:inkscape="http://www.inkscape.org/namespaces/inkscape"
   width="210mm"
   height="297mm"
   viewBox="0 0 210 297"
   version="1.1"
   id="svg8"
   inkscape:version="1.0.2 (e86c870879, 2021-01-15)"
   sodipodi:docname="first_logo.svg">
  <defs
     id="defs2">
    <inkscape:path-effect
       effect="spiro"
       id="path-effect855"
       is_visible="true"
       lpeversion="1" />
    <inkscape:path-effect
       effect="spiro"
       id="path-effect851"
       is_visible="true"
       lpeversion="1" />
    <inkscape:path-effect
       effect="spiro"
       id="path-effect12"
       is_visible="true"
       lpeversion="1" />
  </defs>
  <sodipodi:namedview
     id="base"
     pagecolor="#ffffff"
     bordercolor="#666666"
     borderopacity="1.0"
     inkscape:pageopacity="0.0"
     inkscape:pageshadow="2"
     inkscape:zoom="0.7"
     inkscape:cx="515.40955"
     inkscape:cy="828.23431"
     inkscape:document-units="mm"
     inkscape:current-layer="layer1"
     inkscape:document-rotation="0"
     showgrid="false"
     inkscape:window-width="1366"
     inkscape:window-height="731"
     inkscape:window-x="0"
     inkscape:window-y="0"
     inkscape:window-maximized="0" />
  <metadata
     id="metadata5">
    <rdf:RDF>
      <cc:Work
         rdf:about="">
        <dc:format>image/svg+xml</dc:format>
        <dc:type
           rdf:resource="http://purl.org/dc/dcmitype/StillImage" />
        <dc:title></dc:title>
      </cc:Work>
    </rdf:RDF>
  </metadata>
  <g
     inkscape:label="Layer 1"
     inkscape:groupmode="layer"
     id="layer1">
    <g
       id="g862"
       transform="matrix(0.91930905,0,0,0.91930905,72.066157,145.58429)">
      <path
         id="path853"
         style="fill:none;stroke:#19d5ba;stroke-width:3;stroke-linecap:butt;stroke-linejoin:miter;stroke-miterlimit:4;stroke-dasharray:none;stroke-opacity:1"
         d="m 67.889069,62.511555 c 8.860604,1.14791 17.866964,1.16593 26.732094,0.0535 0.87992,-0.11042 1.77368,-0.23623 2.5784,-0.6089 0.40236,-0.18633 0.779,-0.43445 1.08765,-0.7528 0.30865,-0.31836 0.54776,-0.70877 0.66214,-1.13718 0.15157,-0.56771 0.0758,-1.18809 -0.18355,-1.71536 -0.25933,-0.52727 -0.69621,-0.96061 -1.21279,-1.24064 -0.51657,-0.28003 -1.10975,-0.40926 -1.69724,-0.39802 -0.58749,0.0113 -1.16893,0.16045 -1.70205,0.40753 -1.06625,0.49415 -1.9206,1.36354 -2.5941,2.32659 -0.6735,0.96305 -1.18555,2.02724 -1.73651,3.06527 -1.34081,2.52613 -2.94843,4.94626 -5.05431,6.88129 -2.10589,1.93503 -4.74783,3.36594 -7.589705,3.68668 -1.420935,0.16037 -2.878138,0.0404 -4.238997,-0.39877 -1.360858,-0.43913 -2.622631,-1.20106 -3.60917,-2.2362 -0.986539,-1.03514 -1.691476,-2.34513 -1.963366,-3.749 -0.27189,-1.40387 -0.102436,-2.89735 0.521504,-4.184 0.68755,-1.41782 1.949313,-2.5724 3.460829,-3.01767 0.755759,-0.22264 1.564849,-0.26868 2.338064,-0.11744 0.773216,0.15125 1.508757,0.50109 2.103677,1.01762 0.937238,0.81375 1.493314,2.01859 1.630191,3.25223 0.136878,1.23364 -0.12458,2.49147 -0.624817,3.62742 -1.000473,2.27188 -2.881431,4.0141 -4.671707,5.73379 -1.790276,1.71969 -3.596304,3.57563 -4.368371,5.93494 -0.386033,1.17965 -0.491086,2.46835 -0.173987,3.66837 0.317099,1.20002 1.078735,2.30048 2.157191,2.91492 0.952309,0.54257 2.105268,0.68402 3.18465,0.49373 1.079382,-0.19028 2.087438,-0.6969 2.957248,-1.36376 1.739621,-1.33372 2.911623,-3.25308 4.141906,-5.06733 1.37381,-2.02591 2.88149,-3.98761 4.74514,-5.57458 1.86365,-1.58696 4.11429,-2.78944 6.54118,-3.10864 1.21344,-0.15961 2.46038,-0.0954 3.63962,0.23217 1.17925,0.32755 2.28899,0.9216 3.1854,1.75488 0.89642,0.83328 1.57455,1.90777 1.898197,3.0881 0.32365,1.18032 0.28559,2.46389 -0.148867,3.60807 -0.42559,1.12082 -1.22009,2.08603 -2.19409,2.7851 -0.974,0.69907 -2.12171,1.13852 -3.302,1.34896 -2.36059,0.42086 -4.79146,-0.0595 -7.08364,-0.76333 -4.01086,-1.23157 -7.9104,-3.16892 -12.105414,-3.24363 -2.72696,-0.0486 -5.470509,0.72894 -7.738566,2.24372 -2.268058,1.51479 -4.044974,3.76612 -4.943665,6.3412 -0.898691,2.57508 -0.904925,5.46064 0.03009,8.02276 0.935011,2.56211 2.813321,4.776915 5.212495,6.074075 1.785057,0.96513 3.824648,1.42049 5.853845,1.43666 2.029197,0.0162 4.048968,-0.39735 5.957625,-1.08651 3.81731,-1.3783 7.14761,-3.817275 10.36426,-6.292105 1.37768,-1.05996 2.75606,-2.13927 4.30312,-2.9318 1.54707,-0.79253 3.29425,-1.289 5.02192,-1.09749 0.863827,0.0958 1.712557,0.36505 2.452207,0.82144 0.73966,0.45639 1.36725,1.10288 1.76484,1.87573 0.39759,0.77286 0.55862,1.67223 0.41325,2.52911 -0.14536,0.85689 -0.60394,1.66408 -1.29096,2.19642 -0.8644,0.669775 -2.01971,0.868005 -3.109487,0.777605 -1.08978,-0.0904 -2.13817,-0.44257 -3.1791,-0.777605 -4.71715,-1.51827 -9.57139,-2.74264 -14.52177,-2.96705 -4.950378,-0.22442 -10.028364,0.59638 -14.37998,2.96705 -0.315563,0.171905 -0.626867,0.351635 -0.93353,0.538965 M 33.667376,81.832975 c 5.537491,-13.50266 15.327262,-25.22492 27.626796,-33.0803 2.03757,-1.30134 4.220736,-2.52605 6.624326,-2.78668 1.201796,-0.13032 2.442675,-0.008 3.56017,0.45315 1.117496,0.46098 2.104377,1.2732 2.684896,2.33353 0.379244,0.69269 0.580326,1.47856 0.607031,2.26782 0.02671,0.78927 -0.118971,1.58128 -0.399812,2.31937 -0.561681,1.47619 -1.652049,2.71268 -2.93615,3.63229 -2.568203,1.83922 -5.78714,2.43478 -8.817417,3.32687 -4.389149,1.29213 -8.594926,3.2964 -13.121596,3.96235 -2.263336,0.33298 -4.602607,0.31881 -6.806958,-0.29307 -2.204351,-0.61188 -4.269496,-1.85094 -5.657728,-3.66928 -0.661069,-0.86589 -1.166003,-1.86233 -1.387068,-2.92905 -0.221065,-1.06673 -0.148266,-2.20541 0.287581,-3.20381 0.481768,-1.1036 1.396582,-1.99858 2.482713,-2.51853 1.086131,-0.51994 2.333187,-0.6731 3.524894,-0.50029 1.191707,0.1728 2.327571,0.66338 3.313017,1.35543 0.985446,0.69204 1.823656,1.58187 2.515999,2.5671 1.384685,1.97047 2.178414,4.28892 2.860721,6.59859 0.682307,2.30967 1.277145,4.66273 2.326604,6.83039 1.306481,2.69854 3.282785,5.02826 5.492212,7.05494 2.209427,2.02668 4.658813,3.77111 7.08931,5.52658 0.149963,0.10831 0.29988,0.21669 0.449752,0.32513 M 7.1594192,72.667395 c 4.7256768,-13.4827 14.0324308,-25.31315 26.0235348,-33.0803 2.03173,-1.31604 4.217526,-2.54591 6.624384,-2.804594 1.203429,-0.129342 2.445844,-0.004 3.563535,0.46043 1.117691,0.464474 2.103339,1.280804 2.681473,2.344164 0.376974,0.69337 0.576061,1.47911 0.601292,2.26793 0.02523,0.78881 -0.121411,1.58006 -0.40277,2.31743 -0.562718,1.47472 -1.652391,2.71005 -2.935384,3.6295 -2.565988,1.8389 -5.781744,2.43783 -8.809486,3.33149 -4.38852,1.29531 -8.594468,3.29989 -13.121533,3.96519 -2.263532,0.33265 -4.602966,0.31789 -6.807311,-0.29457 -2.204345,-0.61245 -4.269299,-1.85202 -5.6574378,-3.67062 -0.660974,-0.86594 -1.16587,-1.86237 -1.386945,-2.92908 -0.221075,-1.06671 -0.148333,-2.20537 0.287458,-3.20378 0.481719,-1.10363 1.396511,-1.99867 2.4826398,-2.51866 1.086128,-0.51998 2.333199,-0.67317 3.524924,-0.50038 1.191725,0.17278 2.327609,0.66336 3.313071,1.35541 0.985463,0.69204 1.823685,1.58188 2.516033,2.56713 1.384696,1.9705 2.178413,4.28899 2.860705,6.5987 0.682291,2.3097 1.277113,4.6628 2.326575,6.83049 1.306469,2.69854 3.282774,5.02827 5.492204,7.05495 2.20943,2.02667 4.65882,3.7711 7.089318,5.52657 0.149963,0.10831 0.29988,0.21669 0.449752,0.32513 m 84.935399,-1.95572 A 67.216566,67.216566 0 0 1 55.594284,137.50077 67.216566,67.216566 0 0 1 -11.622277,70.284205 67.216566,67.216566 0 0 1 55.594284,3.067633 67.216566,67.216566 0 0 1 122.81085,70.284205 Z m 5.01752,0 A 72.234077,72.234077 0 0 1 55.594284,142.51827 72.234077,72.234077 0 0 1 -16.639788,70.284205 72.234077,72.234077 0 0 1 55.594284,-1.949875 72.234077,72.234077 0 0 1 127.82837,70.284205 Z"
         inkscape:export-xdpi="96"
         inkscape:export-ydpi="96" />
    </g>
  </g>
</svg>
